<svg xmlns="http://www.w3.org/2000/svg" viewBox="0 0 500 500"><g id="freepik--background-complete--inject-33"><g><g><g><path d="M443.92,330.198h-180.746c-3.232,0-5.862-2.63-5.862-5.862V61.062c0-3.232,2.63-5.862,5.862-5.862h180.746c3.232,0,5.862,2.629,5.862,5.862V324.335c0,3.233-2.63,5.862-5.862,5.862ZM263.174,55.45c-3.095,0-5.612,2.518-5.612,5.612V324.335c0,3.095,2.518,5.612,5.612,5.612h180.746c3.095,0,5.612-2.517,5.612-5.612V61.062c0-3.094-2.518-5.612-5.612-5.612h-180.746Z" style="fill:#e0e0e0;"></path><path d="M235.493,330.198H54.746c-3.232,0-5.862-2.63-5.862-5.862V61.062c0-3.232,2.629-5.862,5.862-5.862H235.493c3.232,0,5.862,2.629,5.862,5.862V324.335c0,3.233-2.63,5.862-5.862,5.862ZM54.746,55.45c-3.094,0-5.612,2.518-5.612,5.612V324.335c0,3.095,2.518,5.612,5.612,5.612H235.493c3.095,0,5.612-2.517,5.612-5.612V61.062c0-3.094-2.518-5.612-5.612-5.612H54.746Z" style="fill:#e0e0e0;"></path></g><rect x="0" y="391.267" width="500" height=".25" style="fill:#e0e0e0;"></rect></g><rect x="51.672" y="405.531" width="16.06" height=".25" style="fill:#e0e0e0;"></rect><rect x="170.352" y="402.821" width="53.53" height=".25" style="fill:#e0e0e0;"></rect><rect x="68.732" y="414.821" width="36.25" height=".25" style="fill:#e0e0e0;"></rect><rect x="378.352" y="402.691" width="43.19" height=".25" style="fill:#e0e0e0;"></rect><rect x="430.452" y="402.691" width="6.33" height=".25" style="fill:#e0e0e0;"></rect><rect x="316.212" y="408.921" width="53.89" height=".25" style="fill:#e0e0e0;"></rect></g><path d="M333.926,232.123s26.414,9.19,15.823,21.237-30.151,20.771-18.211,28.562c11.94,7.792,118.683,3.492,118.683,3.492l-13.601-53.291h-102.694Z" style="fill:#f0f0f0;"></path><path d="M452.536,336.437c-13.601-17.513-228.491-22.556-241.115-34.798-12.624-12.242,32.715-43.251,32.488-56.913-.227-13.662-201.86-8.772-201.86-8.772v78.942c2.594,14.436,14.103,26.566,27.497,33.023,14.674,7.074,31.359,8.521,47.633,9.271,16.273,.75,32.831,.959,48.365,5.865,15.19,4.798,25.834,13.413,31.573,28.211l275.942,.25c-.317-1.726-6.922-37.567-20.523-55.08Z" style="fill:#f0f0f0;"></path><g><rect x="183.421" y="93.684" width="132.918" height="129.475" style="fill:#e0e0e0;"></rect><rect x="190.908" y="174.403" width="119.409" height="46.305" style="fill:#fff; opacity:.3;"></rect><rect x="192.056" y="174.403" width="117.475" height="2.675" style="fill:#fff;"></rect><g><rect x="323.022" y="107.898" width="135.705" height="128.056" transform="translate(781.749 343.852) rotate(180)" style="fill:#e6e6e6;"></rect><polygon points="324.988 107.898 461.405 107.898 454.791 95.96 324.988 95.96 324.988 107.898" style="fill:#e0e0e0;"></polygon><rect x="324.988" y="186.054" width="133.74" height="1.588" rx=".756" ry=".756" transform="translate(783.715 373.696) rotate(180)" style="fill:#fff;"></rect><g><g><rect x="429.144" y="119.76" width="10.663" height="21.497" transform="translate(868.952 261.017) rotate(180)" style="fill:#f5f5f5;"></rect><path d="M429.144,123.294l10.663,8.972s0,5.374,0,5.33-10.663-8.395-10.663-8.35,0-5.952,0-5.952Z" style="fill:#fff; opacity:.2;"></path></g><g><rect x="407.763" y="119.76" width="10.663" height="21.497" transform="translate(826.188 261.017) rotate(180)" style="fill:#f5f5f5;"></rect><path d="M407.763,123.294l10.663,8.972s0,5.374,0,5.33-10.663-8.395-10.663-8.35,0-5.952,0-5.952Z" style="fill:#fff; opacity:.2;"></path></g><g><rect x="386.381" y="119.76" width="10.663" height="21.497" transform="translate(783.424 261.017) rotate(180)" style="fill:#f5f5f5;"></rect><path d="M386.381,123.294l10.663,8.972s0,5.374,0,5.33-10.663-8.395-10.663-8.35,0-5.952,0-5.952Z" style="fill:#fff; opacity:.2;"></path></g><g><rect x="364.999" y="119.76" width="10.663" height="21.497" transform="translate(740.66 261.017) rotate(180)" style="fill:#f5f5f5;"></rect><path d="M364.999,123.294l10.663,8.972s0,5.374,0,5.33-10.663-8.395-10.663-8.35,0-5.952,0-5.952Z" style="fill:#fff; opacity:.2;"></path></g><rect x="427.291" y="141.217" width="13.756" height="1.577" transform="translate(868.338 284.011) rotate(180)" style="fill:#fff;"></rect><rect x="406.09" y="141.217" width="13.756" height="1.577" transform="translate(825.937 284.011) rotate(180)" style="fill:#fff;"></rect><rect x="384.89" y="141.217" width="13.756" height="1.577" transform="translate(783.536 284.011) rotate(180)" style="fill:#fff;"></rect><rect x="363.689" y="141.217" width="13.756" height="1.577" transform="translate(741.134 284.011) rotate(180)" style="fill:#fff;"></rect><g><rect x="343.978" y="119.76" width="10.663" height="21.497" transform="translate(698.619 261.017) rotate(180)" style="fill:#f5f5f5;"></rect><path d="M343.978,123.294l10.663,8.972s0,5.374,0,5.33-10.663-8.395-10.663-8.35,0-5.952,0-5.952Z" style="fill:#fff; opacity:.2;"></path></g><rect x="342.668" y="141.217" width="13.756" height="1.577" transform="translate(699.092 284.011) rotate(180)" style="fill:#fff;"></rect></g><g><g><rect x="429.144" y="155.1" width="10.663" height="21.497" transform="translate(868.952 331.696) rotate(180)" style="fill:#f5f5f5;"></rect><path d="M429.144,158.634l10.663,8.972s0,5.374,0,5.33-10.663-8.395-10.663-8.35,0-5.952,0-5.952Z" style="fill:#fff; opacity:.2;"></path></g><g><rect x="407.763" y="155.1" width="10.663" height="21.497" transform="translate(826.188 331.696) rotate(180)" style="fill:#f5f5f5;"></rect><path d="M407.763,158.634l10.663,8.972s0,5.374,0,5.33-10.663-8.395-10.663-8.35,0-5.952,0-5.952Z" style="fill:#fff; opacity:.2;"></path></g><g><rect x="386.381" y="155.1" width="10.663" height="21.497" transform="translate(783.424 331.696) rotate(180)" style="fill:#f5f5f5;"></rect><path d="M386.381,158.634l10.663,8.972s0,5.374,0,5.33-10.663-8.395-10.663-8.35,0-5.952,0-5.952Z" style="fill:#fff; opacity:.2;"></path></g><g><rect x="364.999" y="155.1" width="10.663" height="21.497" transform="translate(740.66 331.696) rotate(180)" style="fill:#f5f5f5;"></rect><path d="M364.999,158.634l10.663,8.972s0,5.374,0,5.33-10.663-8.395-10.663-8.35,0-5.952,0-5.952Z" style="fill:#fff; opacity:.2;"></path></g><rect x="427.291" y="176.556" width="13.756" height="1.577" transform="translate(868.338 354.69) rotate(180)" style="fill:#fff;"></rect><rect x="406.09" y="176.556" width="13.756" height="1.577" transform="translate(825.937 354.69) rotate(180)" style="fill:#fff;"></rect><rect x="384.89" y="176.556" width="13.756" height="1.577" transform="translate(783.536 354.69) rotate(180)" style="fill:#fff;"></rect><rect x="363.689" y="176.556" width="13.756" height="1.577" transform="translate(741.134 354.69) rotate(180)" style="fill:#fff;"></rect><g><rect x="343.978" y="155.1" width="10.663" height="21.497" transform="translate(698.619 331.696) rotate(180)" style="fill:#f5f5f5;"></rect><path d="M343.978,158.634l10.663,8.972s0,5.374,0,5.33-10.663-8.395-10.663-8.35,0-5.952,0-5.952Z" style="fill:#fff; opacity:.2;"></path></g><rect x="342.668" y="176.556" width="13.756" height="1.577" transform="translate(699.092 354.69) rotate(180)" style="fill:#fff;"></rect></g><g><g><rect x="429.144" y="198.436" width="10.663" height="21.497" transform="translate(868.952 418.37) rotate(180)" style="fill:#f5f5f5;"></rect><path d="M429.144,201.971l10.663,8.972s0,5.374,0,5.33-10.663-8.395-10.663-8.35,0-5.952,0-5.952Z" style="fill:#fff; opacity:.2;"></path></g><g><rect x="407.763" y="198.436" width="10.663" height="21.497" transform="translate(826.188 418.37) rotate(180)" style="fill:#f5f5f5;"></rect><path d="M407.763,201.971l10.663,8.972s0,5.374,0,5.33-10.663-8.395-10.663-8.35,0-5.952,0-5.952Z" style="fill:#fff; opacity:.2;"></path></g><g><rect x="386.381" y="198.436" width="10.663" height="21.497" transform="translate(783.424 418.37) rotate(180)" style="fill:#f5f5f5;"></rect><path d="M386.381,201.971l10.663,8.972s0,5.374,0,5.33-10.663-8.395-10.663-8.35,0-5.952,0-5.952Z" style="fill:#fff; opacity:.2;"></path></g><g><rect x="364.999" y="198.436" width="10.663" height="21.497" transform="translate(740.66 418.37) rotate(180)" style="fill:#f5f5f5;"></rect><path d="M364.999,201.971l10.663,8.972s0,5.374,0,5.33-10.663-8.395-10.663-8.35,0-5.952,0-5.952Z" style="fill:#fff; opacity:.2;"></path></g><rect x="427.291" y="219.893" width="13.756" height="1.577" transform="translate(868.338 441.364) rotate(180)" style="fill:#fff;"></rect><rect x="406.09" y="219.893" width="13.756" height="1.577" transform="translate(825.937 441.364) rotate(180)" style="fill:#fff;"></rect><rect x="384.89" y="219.893" width="13.756" height="1.577" transform="translate(783.536 441.364) rotate(180)" style="fill:#fff;"></rect><rect x="363.689" y="219.893" width="13.756" height="1.577" transform="translate(741.134 441.364) rotate(180)" style="fill:#fff;"></rect><g><rect x="343.978" y="198.436" width="10.663" height="21.497" transform="translate(698.619 418.37) rotate(180)" style="fill:#f5f5f5;"></rect><path d="M343.978,201.971l10.663,8.972s0,5.374,0,5.33-10.663-8.395-10.663-8.35,0-5.952,0-5.952Z" style="fill:#fff; opacity:.2;"></path></g><rect x="342.668" y="219.893" width="13.756" height="1.577" transform="translate(699.092 441.364) rotate(180)" style="fill:#fff;"></rect></g></g><g><rect x="42.049" y="107.898" width="135.706" height="128.056" style="fill:#e6e6e6;"></rect><polygon points="175.788 107.898 39.371 107.898 45.985 95.96 175.788 95.96 175.788 107.898" style="fill:#e0e0e0;"></polygon><rect x="42.049" y="186.054" width="133.74" height="1.588" rx=".756" ry=".756" style="fill:#fff;"></rect><g><g><rect x="60.969" y="119.76" width="10.663" height="21.497" style="fill:#f5f5f5;"></rect><path d="M71.632,123.294l-10.663,8.972s0,5.374,0,5.33,10.663-8.395,10.663-8.35,0-5.952,0-5.952Z" style="fill:#fff; opacity:.2;"></path></g><g><rect x="82.351" y="119.76" width="10.663" height="21.497" style="fill:#f5f5f5;"></rect><path d="M93.014,123.294l-10.663,8.972s0,5.374,0,5.33,10.663-8.395,10.663-8.35,0-5.952,0-5.952Z" style="fill:#fff; opacity:.2;"></path></g><g><rect x="103.733" y="119.76" width="10.663" height="21.497" style="fill:#f5f5f5;"></rect><path d="M114.395,123.294l-10.663,8.972s0,5.374,0,5.33,10.663-8.395,10.663-8.35,0-5.952,0-5.952Z" style="fill:#fff; opacity:.2;"></path></g><g><rect x="125.115" y="119.76" width="10.663" height="21.497" style="fill:#f5f5f5;"></rect><path d="M135.777,123.294l-10.663,8.972s0,5.374,0,5.33,10.663-8.395,10.663-8.35,0-5.952,0-5.952Z" style="fill:#fff; opacity:.2;"></path></g><rect x="59.729" y="141.217" width="13.756" height="1.577" style="fill:#fff;"></rect><rect x="80.929" y="141.217" width="13.756" height="1.577" style="fill:#fff;"></rect><rect x="102.13" y="141.217" width="13.756" height="1.577" style="fill:#fff;"></rect><rect x="123.331" y="141.217" width="13.756" height="1.577" style="fill:#fff;"></rect><g><rect x="146.135" y="119.76" width="10.663" height="21.497" style="fill:#f5f5f5;"></rect><path d="M156.798,123.294l-10.663,8.972s0,5.374,0,5.33,10.663-8.395,10.663-8.35,0-5.952,0-5.952Z" style="fill:#fff; opacity:.2;"></path></g><rect x="144.352" y="141.217" width="13.756" height="1.577" style="fill:#fff;"></rect></g><g><g><rect x="60.969" y="155.1" width="10.663" height="21.497" style="fill:#f5f5f5;"></rect><path d="M71.632,158.634l-10.663,8.972s0,5.374,0,5.33,10.663-8.395,10.663-8.35,0-5.952,0-5.952Z" style="fill:#fff; opacity:.2;"></path></g><g><rect x="82.351" y="155.1" width="10.663" height="21.497" style="fill:#f5f5f5;"></rect><path d="M93.014,158.634l-10.663,8.972s0,5.374,0,5.33,10.663-8.395,10.663-8.35,0-5.952,0-5.952Z" style="fill:#fff; opacity:.2;"></path></g><g><rect x="103.733" y="155.1" width="10.663" height="21.497" style="fill:#f5f5f5;"></rect><path d="M114.395,158.634l-10.663,8.972s0,5.374,0,5.33,10.663-8.395,10.663-8.35,0-5.952,0-5.952Z" style="fill:#fff; opacity:.2;"></path></g><g><rect x="125.115" y="155.1" width="10.663" height="21.497" style="fill:#f5f5f5;"></rect><path d="M135.777,158.634l-10.663,8.972s0,5.374,0,5.33,10.663-8.395,10.663-8.35,0-5.952,0-5.952Z" style="fill:#fff; opacity:.2;"></path></g><rect x="59.729" y="176.556" width="13.756" height="1.577" style="fill:#fff;"></rect><rect x="80.929" y="176.556" width="13.756" height="1.577" style="fill:#fff;"></rect><rect x="102.13" y="176.556" width="13.756" height="1.577" style="fill:#fff;"></rect><rect x="123.331" y="176.556" width="13.756" height="1.577" style="fill:#fff;"></rect><g><rect x="146.135" y="155.1" width="10.663" height="21.497" style="fill:#f5f5f5;"></rect><path d="M156.798,158.634l-10.663,8.972s0,5.374,0,5.33,10.663-8.395,10.663-8.35,0-5.952,0-5.952Z" style="fill:#fff; opacity:.2;"></path></g><rect x="144.352" y="176.556" width="13.756" height="1.577" style="fill:#fff;"></rect></g><g><g><rect x="60.969" y="198.436" width="10.663" height="21.497" style="fill:#f5f5f5;"></rect><path d="M71.632,201.971l-10.663,8.972s0,5.374,0,5.33,10.663-8.395,10.663-8.35,0-5.952,0-5.952Z" style="fill:#fff; opacity:.2;"></path></g><g><rect x="82.351" y="198.436" width="10.663" height="21.497" style="fill:#f5f5f5;"></rect><path d="M93.014,201.971l-10.663,8.972s0,5.374,0,5.33,10.663-8.395,10.663-8.35,0-5.952,0-5.952Z" style="fill:#fff; opacity:.2;"></path></g><g><rect x="103.733" y="198.436" width="10.663" height="21.497" style="fill:#f5f5f5;"></rect><path d="M114.395,201.971l-10.663,8.972s0,5.374,0,5.33,10.663-8.395,10.663-8.35,0-5.952,0-5.952Z" style="fill:#fff; opacity:.2;"></path></g><g><rect x="125.115" y="198.436" width="10.663" height="21.497" style="fill:#f5f5f5;"></rect><path d="M135.777,201.971l-10.663,8.972s0,5.374,0,5.33,10.663-8.395,10.663-8.35,0-5.952,0-5.952Z" style="fill:#fff; opacity:.2;"></path></g><rect x="59.729" y="219.893" width="13.756" height="1.577" style="fill:#fff;"></rect><rect x="80.929" y="219.893" width="13.756" height="1.577" style="fill:#fff;"></rect><rect x="102.13" y="219.893" width="13.756" height="1.577" style="fill:#fff;"></rect><rect x="123.331" y="219.893" width="13.756" height="1.577" style="fill:#fff;"></rect><g><rect x="146.135" y="198.436" width="10.663" height="21.497" style="fill:#f5f5f5;"></rect><path d="M156.798,201.971l-10.663,8.972s0,5.374,0,5.33,10.663-8.395,10.663-8.35,0-5.952,0-5.952Z" style="fill:#fff; opacity:.2;"></path></g><rect x="144.352" y="219.893" width="13.756" height="1.577" style="fill:#fff;"></rect></g></g><g><g><rect x="210.43" y="118.852" width="11.619" height="30.375" style="fill:#f5f5f5;"></rect><path d="M222.049,123.846l-11.619,12.677s0,7.594,0,7.531,11.619-11.861,11.619-11.799,0-8.41,0-8.41Z" style="fill:#fff; opacity:.2;"></path></g><g><rect x="233.729" y="118.852" width="11.619" height="30.375" style="fill:#f5f5f5;"></rect><path d="M245.348,123.846l-11.619,12.677s0,7.594,0,7.531,11.619-11.861,11.619-11.799,0-8.41,0-8.41Z" style="fill:#fff; opacity:.2;"></path></g><g><rect x="257.029" y="118.852" width="11.619" height="30.375" style="fill:#f5f5f5;"></rect><path d="M268.648,123.846l-11.619,12.677s0,7.594,0,7.531,11.619-11.861,11.619-11.799,0-8.41,0-8.41Z" style="fill:#fff; opacity:.2;"></path></g><g><rect x="280.328" y="118.852" width="11.619" height="30.375" style="fill:#f5f5f5;"></rect><path d="M291.947,123.846l-11.619,12.677s0,7.594,0,7.531,11.619-11.861,11.619-11.799,0-8.41,0-8.41Z" style="fill:#fff; opacity:.2;"></path></g><rect x="209.079" y="149.184" width="14.99" height="1.719" style="fill:#fff;"></rect><rect x="232.181" y="149.184" width="14.99" height="1.719" style="fill:#fff;"></rect><rect x="255.283" y="149.184" width="14.99" height="1.719" style="fill:#fff;"></rect><rect x="278.385" y="149.184" width="14.99" height="1.719" style="fill:#fff;"></rect></g><g><g><polygon points="305.456 98.542 305.456 93.684 330.876 93.684 330.876 98.542 326.076 101.47 309.531 101.47 305.456 98.542" style="fill:#ebebeb;"></polygon><rect x="309.531" y="101.47" width="16.545" height="124.486" style="fill:#ebebeb;"></rect></g><polygon points="305.456 98.542 330.876 98.542 326.076 101.47 309.531 101.47 305.456 98.542" style="fill:#e0e0e0;"></polygon><g><rect x="312.751" y="104.643" width="1.411" height="118.138" rx=".671" ry=".671" style="fill:#e0e0e0;"></rect><rect x="317.461" y="104.643" width="1.41" height="118.138" rx=".671" ry=".671" style="fill:#e0e0e0;"></rect><rect x="322.171" y="104.643" width="1.411" height="118.138" rx=".671" ry=".671" style="fill:#e0e0e0;"></rect></g></g><g><g><polygon points="168.318 98.542 168.318 93.684 193.738 93.684 193.738 98.542 188.938 101.47 172.393 101.47 168.318 98.542" style="fill:#ebebeb;"></polygon><rect x="172.393" y="101.47" width="16.545" height="124.486" style="fill:#ebebeb;"></rect></g><polygon points="168.318 98.542 193.738 98.542 188.938 101.47 172.393 101.47 168.318 98.542" style="fill:#e0e0e0;"></polygon><g><rect x="175.613" y="104.643" width="1.411" height="118.138" rx=".671" ry=".671" style="fill:#e0e0e0;"></rect><rect x="180.323" y="104.643" width="1.41" height="118.138" rx=".671" ry=".671" style="fill:#e0e0e0;"></rect><rect x="185.033" y="104.643" width="1.411" height="118.138" rx=".671" ry=".671" style="fill:#e0e0e0;"></rect></g></g><g><rect x="149.775" y="225.956" width="196.713" height="5.33" style="fill:#e0e0e0;"></rect><rect x="157.663" y="220.625" width="181.395" height="5.33" style="fill:#e0e0e0;"></rect><rect x="142.03" y="231.222" width="210.917" height="5.33" style="fill:#e0e0e0;"></rect></g><g><path d="M163.018,84.092c.87,0,88.753-42.056,88.753-42.056l88.173,42.056H163.018Z" style="fill:#e0e0e0;"></path><polygon points="339.944 93.684 164.786 93.684 162.764 93.684 162.764 84.092 339.944 84.092 339.944 93.684" style="fill:#e6e6e6;"></polygon><rect x="162.764" y="84.092" width="177.18" height="1.172" style="fill:#ebebeb;"></rect></g><g><rect x="210.929" y="184.476" width="83.544" height="36.134" style="fill:#e0e0e0;"></rect><rect x="213.218" y="186.636" width="16.82" height="33.973" style="fill:#f5f5f5;"></rect><rect x="275.11" y="186.636" width="17.478" height="33.973" style="fill:#f5f5f5;"></rect><rect x="232.277" y="186.636" width="19.077" height="33.973" style="fill:#f5f5f5;"></rect><rect x="253.901" y="186.636" width="19.078" height="33.973" style="fill:#f5f5f5;"></rect><path d="M230.039,189.923c0-.114-16.82,12.274-16.82,12.628v8.546l16.82-12.63v-8.544Z" style="fill:#fff; opacity:.2;"></path><polyline points="230.039 202.551 213.218 214.825 213.218 217.324 230.039 204.955 230.039 203.081" style="fill:#fff; opacity:.2;"></polyline><path d="M292.588,189.923c0-.114-17.478,12.274-17.478,12.628v8.546l17.478-12.63v-8.544Z" style="fill:#fff; opacity:.2;"></path><polyline points="292.588 202.551 275.11 214.825 275.11 217.324 292.588 204.955 292.588 203.081" style="fill:#fff; opacity:.2;"></polyline><polygon points="251.354 194.265 232.277 205.491 232.277 212.932 251.354 201.016 251.354 194.265" style="fill:#fff; opacity:.2;"></polygon><polygon points="272.979 199.123 253.901 211.315 253.901 218.756 272.979 206.84 272.979 199.123" style="fill:#fff; opacity:.2;"></polygon><rect x="248.402" y="201.928" width="2.952" height="9.169" style="fill:#e0e0e0;"></rect><rect x="253.913" y="201.928" width="2.952" height="9.169" style="fill:#e0e0e0;"></rect></g></g><rect x="18.155" y="235.704" width="468.03" height=".5" style="fill:#e0e0e0;"></rect><path d="M97.781,306.958c-2.134-7.733-2.42-10.266-.298-19.749-3.458,3.554-5.952,8.038-7.146,12.851-3.079-3.968-5.176-8.691-6.054-13.635-1.152,4.746-1.014,9.798,.395,14.474-3.615-3.858-7.749-7.228-12.257-9.99,3.718,5.686,7.689,9.89,6.392,15.777l18.968,.272Z" style="fill:#e0e0e0;"></path><path d="M350.112,348.837c-2.134-7.733-2.42-10.266-.298-19.749-3.458,3.554-5.951,8.038-7.146,12.851-3.079-3.968-5.176-8.691-6.054-13.635-1.152,4.746-1.014,9.798,.395,14.474-3.614-3.858-7.749-7.228-12.257-9.99,3.718,5.686,7.689,9.89,6.392,15.777l18.968,.272Z" style="fill:#e0e0e0;"></path><path d="M378.352,261.205c-1.258-4.558-1.426-6.051-.176-11.64-2.038,2.095-3.508,4.738-4.212,7.574-1.814-2.338-3.051-5.122-3.568-8.037-.679,2.797-.598,5.775,.233,8.531-2.13-2.274-4.567-4.26-7.224-5.888,2.191,3.352,4.532,5.829,3.767,9.299l11.18,.16Z" style="fill:#e0e0e0;"></path><path d="M418.104,271.909c-1.742-6.31-1.975-8.378-.243-16.116-2.822,2.9-4.857,6.559-5.832,10.487-2.512-3.238-4.224-7.092-4.941-11.127-.94,3.873-.828,7.996,.323,11.811-2.95-3.148-6.324-5.898-10.002-8.152,3.034,4.64,6.275,8.071,5.216,12.875l15.479,.222Z" style="fill:#e0e0e0;"></path><path d="M154.601,284.608c-1.742-6.313-1.975-8.382-.243-16.123-2.823,2.902-4.859,6.562-5.834,10.492-2.513-3.239-4.226-7.095-4.943-11.132-.941,3.875-.828,8,.323,11.817-2.951-3.15-6.327-5.901-10.007-8.156,3.035,4.643,6.277,8.074,5.218,12.881l15.486,.222Z" style="fill:#e0e0e0;"></path><path d="M124.012,76.208c-1.762-1.331-4.332-1.482-6.238-.366-2.529-5.111-9.577-7.366-14.603-4.673-1.311-5.507-6.737-9.74-12.398-9.672-5.661,.068-10.983,4.43-12.162,9.967-.187,.88-.311,1.844-.941,2.487-1.022,1.044-2.729,.694-4.187,.58-4.584-.358-9.197,2.861-10.444,7.287l63.131-.23c.553-2.137-.399-4.049-2.16-5.38Z" style="fill:#f0f0f0;"></path><path d="M420.868,55.491c-2.161-1.633-5.315-1.818-7.652-.449-3.103-6.27-11.749-9.037-17.915-5.733-1.609-6.756-8.265-11.949-15.21-11.866-6.945,.084-13.474,5.435-14.92,12.228-.23,1.08-.382,2.262-1.154,3.051-1.254,1.281-3.348,.851-5.136,.712-5.624-.439-11.283,3.51-12.813,8.94l77.451-.282c.678-2.622-.489-4.967-2.65-6.6Z" style="fill:#f0f0f0;"></path><path d="M181.989,45.561c-1.365-1.031-3.357-1.148-4.833-.283-1.959-3.96-7.42-5.707-11.314-3.621-1.016-4.267-5.22-7.546-9.606-7.494-4.386,.053-8.51,3.433-9.423,7.723-.145,.682-.241,1.429-.729,1.927-.792,.809-2.115,.538-3.244,.45-3.552-.277-7.126,2.217-8.092,5.646l48.913-.178c.428-1.656-.309-3.137-1.674-4.168Z" style="fill:#f0f0f0;"></path></g><g id="freepik--Shadow--inject-33"><path d="M458.875,454.526c0,3.387-93.517,6.132-208.875,6.132s-208.875-2.745-208.875-6.132,93.516-6.132,208.875-6.132,208.875,2.746,208.875,6.132Z" style="fill:#f5f5f5;"></path></g><g id="freepik--Plants--inject-33"><g><path d="M103.051,429.801c-.623-1.046-2.01-2.332-2.982-3.065-.972-.733-2.306-1.098-3.432-.637-1.438,.589-2.101,2.353-1.901,3.894,.201,1.541,.936,3.489,1.812,4.772,3.74,5.477,7.203,10.489,12.976,14.564,0-6.802-3.02-13.727-6.473-19.529Z" style="fill:#407BFF;"></path><path d="M122.096,430.744c-1.292-.707-3.694,.295-4.873,1.178-2.337,1.751-3.76,3.585-5.184,6.134-1.809,3.237-2.018,7.782-2.248,10.668,4.572-3.711,9.228-7.517,12.359-12.504,.546-.87,1.053-1.805,1.152-2.828,.098-1.023-.305-2.155-1.206-2.648Z" style="fill:#407BFF;"></path><path d="M110.207,452.207c-.115,0-.219-.08-.244-.197-1.084-5.009-3.003-9.756-5.704-14.108-.073-.117-.037-.271,.081-.345,.119-.072,.272-.035,.344,.081,2.731,4.401,4.672,9.201,5.768,14.267,.029,.135-.056,.268-.191,.297-.018,.004-.036,.006-.053,.006Z" style="fill:#263238;"></path><path d="M109.604,449.414c-.028,0-.057-.005-.085-.015-.129-.048-.197-.19-.149-.32,1.226-3.381,3.015-6.494,5.317-9.255,.088-.106,.247-.12,.352-.032,.106,.089,.12,.246,.032,.353-2.265,2.716-4.025,5.779-5.231,9.104-.037,.102-.133,.165-.235,.165Z" style="fill:#263238;"></path></g><g><path d="M394.348,429.868c-.372-1.159-1.436-2.724-2.219-3.656s-2.001-1.587-3.202-1.39c-1.533,.251-2.575,1.822-2.726,3.369-.15,1.547,.129,3.61,.696,5.057,2.417,6.176,4.667,11.837,9.379,17.104,1.525-6.629,.136-14.055-1.928-20.483Z" style="fill:#407BFF;"></path><path d="M412.697,435.058c-1.1-.979-3.666-.541-5.013,.056-2.67,1.182-4.468,2.65-6.428,4.815-2.488,2.748-3.712,7.131-4.583,9.892,5.288-2.591,10.679-5.255,14.848-9.414,.728-.726,1.432-1.523,1.757-2.498,.325-.975,.186-2.168-.581-2.851Z" style="fill:#407BFF;"></path><path d="M396.354,453.314h-.003c-.139-.002-.249-.115-.247-.253,.066-5.124-.739-10.181-2.395-15.028-.045-.131,.024-.273,.155-.317,.137-.047,.273,.026,.317,.155,1.674,4.902,2.489,10.016,2.422,15.196-.002,.138-.113,.247-.25,.247Z" style="fill:#263238;"></path><path d="M396.393,450.458c-.047,0-.094-.013-.136-.04-.116-.075-.149-.229-.074-.346,1.952-3.02,4.395-5.653,7.257-7.826,.108-.082,.268-.062,.351,.048,.083,.11,.062,.267-.048,.351-2.816,2.138-5.219,4.729-7.14,7.699-.048,.074-.128,.114-.21,.114Z" style="fill:#263238;"></path><g><path d="M380.886,442.674c.594-.955,2.569-1.188,3.684-1.042,2.211,.289,3.846,.976,5.749,2.139,2.416,1.476,4.259,4.422,5.494,6.257-4.433-.756-8.958-1.543-12.91-3.689-.69-.374-1.378-.807-1.826-1.45-.449-.644-.605-1.548-.19-2.214Z" style="fill:#407BFF;"></path><path d="M396.102,450.5c-.058,0-.116-.02-.163-.061-2.043-1.757-4.356-3.132-6.875-4.088-.129-.049-.194-.193-.145-.322,.048-.129,.192-.196,.322-.145,2.573,.977,4.936,2.381,7.023,4.176,.104,.09,.116,.248,.026,.353-.05,.058-.119,.087-.189,.087Z" style="fill:#263238;"></path></g></g></g><g id="freepik--Speech_Bubble--inject-33"><g><g><path d="M295.615,137.981c9.269-4.96,12.762-16.494,7.802-25.763-4.96-9.269-16.494-12.762-25.763-7.802-7.155,3.829-10.848,11.576-9.887,19.174l-3.753,4.313,5.703,1.99c.048,.094,.084,.192,.135,.286,4.959,9.269,16.494,12.762,25.763,7.802Z" style="fill:#407BFF;"></path><path d="M307.733,124.566c-.02,0-.04-.002-.061-.007-.134-.034-.216-.169-.182-.303,1.474-5.899-.274-12.565-4.454-16.983-.095-.101-.091-.259,.01-.354,.102-.095,.26-.09,.354,.01,4.294,4.539,6.09,11.387,4.575,17.448-.028,.114-.13,.189-.242,.189Z" style="fill:#407BFF;"></path><path d="M305.914,129.91c-.048,0-.096-.013-.138-.042-.115-.076-.147-.231-.071-.346,.499-.756,.843-1.627,.997-2.519,.022-.136,.154-.227,.288-.204,.137,.023,.228,.153,.204,.289-.165,.959-.535,1.896-1.071,2.709-.048,.073-.128,.112-.209,.112Z" style="fill:#407BFF;"></path></g><polygon points="285.177 128.888 276.453 122.391 278.72 119.347 284.57 123.703 292.607 114.114 295.516 116.553 285.177 128.888" style="fill:#fff;"></polygon></g></g><g id="freepik--Character--inject-33"><g><g><polygon points="188.258 97.239 188.258 95.165 228.486 75.69 272.831 95.165 272.831 97.239 188.258 97.239" style="fill:#263238;"></polygon><polygon points="188.258 97.239 188.258 95.165 228.486 75.69 272.831 95.165 272.831 97.239 188.258 97.239" style="fill:#fff; opacity:.2;"></polygon><path d="M188.258,97.239s44.025,15.819,44.254,15.523,40.929-15.523,40.929-15.523l-44.827-19.675-40.356,19.675Z" style="fill:#263238;"></path><path d="M205.06,106.207c-.061-1.535-.293-3.552-.539-5.688-.697-6.063-1.487-12.935,.696-15.074,.477-.467,1.536-1.216,2.457-1.062,.325,.054,.775,.246,1.079,.853l-.671,.336c-.176-.353-.388-.425-.532-.449-.584-.108-1.417,.474-1.809,.858-1.92,1.881-1.119,8.852-.475,14.452,.247,2.15,.48,4.182,.542,5.744l-.749,.03Z" style="fill:#407BFF;"></path><path d="M206.721,107.06c-.086,.65-.683,1.108-1.334,1.022-.65-.086-1.108-.683-1.022-1.334,.086-.65,.683-1.108,1.334-1.022,.65,.086,1.108,.683,1.022,1.334Z" style="fill:#407BFF;"></path><path d="M205.317,107.075c-1.089,1.068-1.276,2.738-1.296,4.263-.02,1.525,.041,3.143-.724,4.463-.223,.385-.519,.753-.57,1.195-.051,.442,.304,.966,.738,.869,.597-.869,1.016-1.861,1.224-2.895,.097,1.425,.04,2.86-.169,4.273,.659,.183,1.335,.367,2.018,.316,.682-.051,1.385-.385,1.689-.998,.169-.341,.202-.733,.22-1.113,.176-3.714-.743-7.473-2.613-10.687" style="fill:#407BFF;"></path></g><path d="M146.413,122.76c7.371-6.419,14.259-10.576,15.384-9.283,1.126,1.292-2.105,8.201-9.641,15.464-7.038,6.783-14.803,11.202-15.929,9.909-1.126-1.292,2.814-9.67,10.185-16.09Z" style="fill:#407BFF;"></path><g><g><path d="M155.32,96.297c3.324-.165,5.957,6.212,5.344,7.919-.515,1.432-.959,5.46-2.09,7.031-1.13,1.571-8.339,4.851-8.339,4.851,0,0-6.891-6.195-7.724-9.004-.834-2.809-1.844-6.513-1.001-7.656,.843-1.142,1.843-.55,2.524-1.103,.681-.553,.899-2.036,3.258-1.619,0,0,1.594-2.958,3.722-1.848,1.819-1.239,3.11-.621,4.306,1.429" style="fill:#ce9163;"></path><path d="M152.229,106.232c-.084,0-.168-.008-.252-.023-.478-.089-.912-.422-1.327-1.016-.562-.806-.931-1.715-1.287-2.595l-1.764-4.355c-.052-.128,.01-.273,.138-.326,.126-.051,.273,.01,.326,.138l1.764,4.355c.345,.854,.703,1.737,1.233,2.497,.335,.481,.666,.747,1.009,.811,.505,.094,1.003-.267,1.237-.673,.233-.403,.324-.917,.288-1.617-.137-2.592-1.263-5.103-2.257-7.318-.057-.126,0-.274,.125-.331,.125-.059,.274,0,.331,.125,.962,2.144,2.159,4.812,2.3,7.497,.042,.801-.071,1.402-.354,1.893-.333,.578-.929,.938-1.51,.938Z" style="fill:#b26836;"></path><path d="M148.804,106.142c-.204,0-.4-.031-.578-.099-.832-.316-1.414-1.033-1.873-1.691-.814-1.169-1.48-2.437-1.979-3.768-.049-.129,.017-.273,.146-.322,.13-.049,.273,.017,.322,.146,.484,1.292,1.131,2.523,1.921,3.658,.416,.597,.936,1.242,1.641,1.51,.624,.24,1.688-.197,1.961-.802,.057-.126,.207-.181,.331-.125,.126,.057,.182,.205,.125,.331-.306,.678-1.216,1.163-2.016,1.163Z" style="fill:#b26836;"></path><path d="M146.12,107.064c-.348,0-.724-.079-1.123-.237-1.155-.457-2.098-1.373-2.588-2.513-.055-.126,.004-.274,.131-.328,.125-.056,.274,.003,.328,.131,.438,1.018,1.282,1.836,2.313,2.245,.493,.195,.929,.249,1.3,.162,.34-.08,.778-.739,.857-1.173,.025-.136,.155-.223,.291-.201,.136,.025,.226,.155,.201,.291-.1,.545-.631,1.428-1.235,1.57-.151,.036-.31,.054-.475,.054Z" style="fill:#b26836;"></path><polygon points="150.235 116.098 155.324 134.948 168.298 128.709 159.076 110.45 150.235 116.098" style="fill:#ce9163;"></polygon></g><path d="M155.082,96.515c-.219,.131-6.812,5.171-6.812,5.171,0,0-.705,2.085,2.573,1.91,3.278-.175,4.983-1.486,4.983-1.486,0,0-3.716,6.907-1.399,8.612,2.317,1.705,4.065-1.618,4.065-1.618,0,0,1.705-6.863,1.661-6.732" style="fill:#ce9163;"></path><path d="M153.982,109.934c-.126,0-.235-.096-.248-.225-.186-1.812,.143-4.491,1.528-6.953-1.327,.744-3.821,1.853-5.792,1.04-.909-.374-1.395-.849-1.446-1.41-.08-.882,.977-1.573,1.022-1.602l5.645-4.293c.11-.083,.267-.062,.351,.048,.083,.11,.062,.267-.048,.351l-5.661,4.305c-.252,.164-.855,.666-.811,1.148,.042,.45,.642,.788,1.138,.993,2.512,1.033,6.202-1.534,6.239-1.559,.099-.07,.234-.06,.32,.027,.086,.085,.098,.22,.029,.32-1.794,2.583-2.208,5.674-2.017,7.536,.014,.137-.085,.26-.223,.274h-.026Z" style="fill:#b26836;"></path></g><g><polygon points="239.464 444.424 229.137 445.745 221.087 423.723 234.705 419.791 239.464 444.424" style="fill:#ce9163;"></polygon><path d="M228.14,443.989l3.277-.848c.741-.192,1.524,.006,2.117,.49,2.558,2.092,3.725,.749,5.153-2.21,1.267-.49,2.007,.918,2.218,1.294l4.756,8.277c.405,.689,.175,1.576-.514,1.982-.122,.072-.255,.126-.393,.159-3.979,1.03-5.862,1.517-10.815,2.799l-15.147,3.92c-4.129,1.069-6.062-2.871-4.461-3.697,7.211-3.669,12.044-7.322,13.833-10.158,.337-.503-.188-.678-.024-2.008Z" style="fill:#263238;"></path><path d="M224.04,448.29c1.028-.292,2.023-.691,2.968-1.19,.086-.058,.108-.175,.049-.261-.032-.046-.082-.076-.138-.081-.518-.106-5.111-.96-5.949,.033-.16,.175-.206,.426-.118,.647,.115,.423,.424,.767,.833,.926,.773,.227,1.598,.202,2.355-.073Zm2.262-1.27c-1.151,.537-3.319,1.418-4.43,.964-.29-.127-.512-.373-.609-.676-.044-.091-.027-.2,.043-.274,.464-.542,3.101-.323,4.995-.014Z" style="fill:#407BFF;"></path><path d="M226.968,447.121c.045,.002,.09-.01,.128-.033,.042-.062,.044-.143,.004-.206-.044-.171-2.051-3.955-4.231-3.117-.537,.219-.628,.528-.591,.758,.138,1.106,3.239,2.46,4.602,2.655l.088-.057Zm-3.791-3.094c1.423-.368,2.855,1.772,3.377,2.641-1.52-.36-3.827-1.555-3.878-2.238-.014-.054-.053-.203,.354-.354l.147-.049Z" style="fill:#407BFF;"></path><path d="M229.767,448.429c-.062,0-.123-.022-.171-.068-.807-.76-1.95-1.134-3.046-1.006-.139,.011-.262-.082-.277-.219-.017-.137,.082-.262,.219-.277,1.247-.148,2.535,.279,3.447,1.139,.101,.095,.105,.253,.011,.353-.049,.053-.116,.079-.182,.079Z" style="fill:#407BFF;"></path><path d="M228.127,450.488c-.062,0-.123-.022-.171-.068-.807-.76-1.952-1.133-3.046-1.006-.136,.013-.262-.082-.277-.219-.017-.137,.082-.262,.219-.277,1.248-.15,2.535,.278,3.448,1.139,.101,.095,.105,.253,.011,.353-.049,.053-.116,.079-.182,.079Z" style="fill:#407BFF;"></path><path d="M225.926,452.434c-.062,0-.123-.022-.171-.068-.807-.76-1.95-1.136-3.046-1.007-.14,.01-.261-.082-.277-.219-.017-.137,.082-.262,.219-.277,1.249-.147,2.536,.278,3.447,1.14,.101,.095,.105,.253,.011,.354-.049,.052-.116,.078-.182,.078Z" style="fill:#407BFF;"></path></g><g><polygon points="308.986 416.673 299.672 421.326 284.809 403.191 296.369 394.987 308.986 416.673" style="fill:#ce9163;"></polygon><path d="M298.152,419.997l2.814-1.881c.637-.426,1.441-.497,2.161-.235,3.104,1.131,3.764-.522,4.136-3.785,1.035-.881,2.197,.205,2.52,.49l7.219,6.245c.61,.517,.685,1.43,.169,2.04-.092,.108-.199,.203-.319,.28-3.417,2.285-5.034,3.366-9.287,6.209l-13.007,8.696c-3.545,2.371-6.669-.711-5.43-2.018,5.597-5.842,8.956-10.885,9.708-14.152,.153-.586-.401-.578-.685-1.888Z" style="fill:#263238;"></path><path d="M295.7,425.409c.874-.615,1.681-1.32,2.409-2.102,.062-.083,.044-.201-.039-.263-.045-.033-.103-.045-.157-.031-.524,.071-5.141,.779-5.605,1.994-.094,.218-.054,.47,.102,.649,.248,.362,.653,.584,1.092,.599,.804-.04,1.575-.337,2.199-.846Zm1.717-1.945c-.909,.887-2.666,2.434-3.864,2.371-.316-.025-.607-.184-.798-.437-.072-.072-.091-.18-.049-.273,.26-.665,2.821-1.328,4.711-1.661Z" style="fill:#407BFF;"></path><path d="M298.078,423.341c.043-.013,.081-.039,.11-.074,.02-.073-.006-.149-.064-.196-.098-.147-3.24-3.057-5.022-1.547-.435,.384-.419,.705-.308,.91,.495,.998,3.869,1.254,5.22,.989l.064-.083Zm-4.599-1.67c1.222-.817,3.28,.731,4.059,1.38-1.554,.162-4.125-.206-4.399-.834-.031-.046-.117-.175,.217-.451l.122-.095Z" style="fill:#407BFF;"></path><path d="M297.65,423.725c-.093,0-.182-.052-.225-.141-.061-.124-.009-.273,.115-.334,1.127-.551,2.483-.574,3.63-.062,.126,.057,.183,.204,.127,.33-.057,.127-.204,.182-.33,.127-1.015-.452-2.212-.432-3.208,.055-.035,.018-.072,.025-.109,.025Z" style="fill:#407BFF;"></path><path d="M296.781,426.21c-.093,0-.182-.052-.225-.141-.061-.124-.009-.273,.115-.334,1.127-.55,2.484-.575,3.63-.062,.126,.057,.183,.204,.127,.33-.057,.128-.203,.183-.33,.127-1.011-.451-2.211-.432-3.208,.055-.035,.018-.072,.025-.109,.025Z" style="fill:#407BFF;"></path><path d="M295.346,428.771c-.093,0-.182-.052-.225-.141-.061-.124-.009-.273,.115-.334,1.127-.551,2.483-.573,3.63-.062,.126,.057,.183,.204,.127,.33-.057,.127-.204,.182-.33,.127-1.014-.452-2.212-.432-3.208,.055-.035,.018-.072,.025-.109,.025Z" style="fill:#407BFF;"></path></g><g><path d="M209.354,217.38s-20.834,65.81-14.681,113.955c4.115,32.233,25.869,99.622,25.869,99.622l19.181-.485s-15.539-68.457-17.142-95.184c-2.747-45.709,19.89-117.982,19.89-117.982l-33.116,.075Z" style="fill:#407BFF;"></path><path d="M219.175,217.492s2.921,71.888,18.945,112.339c12.928,32.681,50.731,80.801,50.731,80.801l13.925-8.197s-26.369-52.752-36.189-74.556c-24.091-53.453,2.387-90.522-12.12-110.636l-35.291,.249Z" style="fill:#407BFF;"></path><path d="M202.679,369.51c1.753,6.812,3.617,13.674,5.457,20.225,5.42-1.504,13.127-3.729,21.68-6.526-1.454-7.558-2.859-15.278-4.052-22.512l-23.084,8.814Z" style="opacity:.3;"></path><path d="M277.792,351.574l-23.502,9.207c3.729,6.564,7.965,12.618,12.103,18.863,7.956-3.63,14.339-7.146,19.535-11.273l-8.137-16.797Z" style="opacity:.3;"></path></g><g><path d="M201.548,152.167c.498,10.401-4.268,31.747-6.6,89.834-1.313,32.703-8.942,75.66-4.33,132.099,29.316,14.035,107.242-10.362,117.234-19.392-.862-17.225-46.217-134.739-37.369-197.914,.565-4.004-2.021-7.796-6.558-8.382-3.83-.499-8.607-.998-13.427-1.247-7.759-.488-15.547-.488-23.306,0-5.823,.486-18.074-1.077-22.399-.366-3.721,.508-3.283,2.047-3.245,5.37Z" style="fill:#263238;"></path><path d="M210.536,175.018s8.879,18.847,21.768,15.409c12.889-3.437,22.047-32.589,22.047-32.589l-43.815,17.18Z" style="opacity:.3;"></path><path d="M236.954,286.397c-.441,1.962,15.265,80.582,17.337,82.726,2.072,2.143,19.284-3.486,18.402-5.448s-35.739-77.277-35.739-77.277Z" style="opacity:.3;"></path></g><g><g><path d="M228.056,98.63s-9.535,17.182-9.986,22.526c-3.65,3.108-6.244-3.193-6.107-11.638,.112-6.912,3.717-14.371,9.69-17.057,8.391-3.773,6.403,6.168,6.403,6.168Z" style="fill:#407BFF;"></path><g><g><path d="M229.848,148.301c1.598-1.595,1.216-3.514,.913-5.835-.21-1.785-.786-3.64-1.472-5.446l2.383-2.59,12.394-11.633c-.591,8.046-1.576,21.866,4.563,26.468l-25.908,16.47,2.396-15.762s2.388-.358,4.732-1.672Z" style="fill:#ce9163;"></path><path d="M230.834,143.157c3.359-1.833,7.09-5.088,6.798-8.972-.134-1.636-.429-3.192-.783-4.195l-7,8.601c.496,1.445,.663,2.395,.986,4.567Z" style="opacity:.2;"></path><path d="M247.92,109.975c-1.571,12.244-1.977,17.446-8.55,23.657-9.887,9.343-24.439,5.552-26.523-6.717-1.876-11.042,1.008-29.21,13.256-33.935,12.066-4.655,23.388,4.751,21.817,16.995Z" style="fill:#ce9163;"></path><path d="M231.259,114.291c-.01,1.153-.672,2.131-1.479,2.186-.806,.055-1.452-.835-1.443-1.987,.01-1.153,.672-2.132,1.478-2.186,.806-.055,1.452,.835,1.443,1.987Z" style="fill:#263238;"></path><path d="M219.57,113.395c.054,1.115-.55,2.103-1.349,2.206-.8,.103-1.492-.719-1.546-1.835-.054-1.115,.55-2.103,1.349-2.206,.8-.103,1.492,.718,1.546,1.834Z" style="fill:#263238;"></path><path d="M234.529,110.334c-.157,.01-.314-.043-.43-.16-1.811-1.839-3.97-1.322-3.995-1.316-.32,.077-.631-.116-.689-.441-.056-.325,.16-.654,.484-.736,.113-.028,2.822-.679,5.069,1.604,.224,.228,.211,.612-.029,.858-.116,.118-.263,.183-.411,.192Z" style="fill:#263238;"></path><path d="M215.49,107.819c-.142-.047-.263-.144-.331-.283-.141-.287-.003-.64,.306-.789,3.101-1.496,5.517-.199,5.619-.142,.287,.159,.371,.515,.188,.796-.182,.281-.562,.381-.849,.224-.094-.052-1.984-1.031-4.449,.159-.159,.077-.334,.085-.484,.035Z" style="fill:#263238;"></path><path d="M251.274,120.122c-1.542,2.467-3.958,3.964-6.139,4.427-3.281,.698-4.771-4.591-3.543-7.809,1.106-2.896,4.371-4.722,7.513-3.968,3.095,.743,3.933,4.529,2.169,7.349Z" style="fill:#ce9163;"></path><path d="M223.067,112.441s-2.089,4.529-4.361,7.317c-.397,.487-.189,1.227,.392,1.465,1.497,.613,3.29,.173,3.29,.173l.678-8.955Z" style="fill:#b26836;"></path></g><path d="M230.061,112.264l-2.85-.533s1.64,2.029,2.85,.533Z" style="fill:#263238;"></path><path d="M218.437,111.575l-2.876-.363c1.4,1.535,2.515,.868,2.876,.363Z" style="fill:#263238;"></path></g><path d="M245.872,121.448c-.113,0-.216-.077-.243-.192-.032-.134,.051-.269,.186-.301,1.784-.424,2.589-1.342,2.951-2.036,.401-.77,.371-1.477,.224-1.847-.299-.75-1.252-1.35-2.143-1.008-.129,.049-.273-.015-.323-.144-.049-.129,.015-.273,.144-.323,1.178-.452,2.393,.301,2.786,1.29,.195,.491,.233,1.344-.245,2.263-.41,.787-1.311,1.823-3.279,2.292-.019,.005-.039,.007-.058,.007Z" style="opacity:.2;"></path></g><path d="M221.26,125.408c.922,1.355,2.052,3.994,2.052,3.994,.257-.059,.515-.118,.769-.191,3.473-.892,4.79-2.453,5.196-3.913,.219-.8,.156-1.576,.024-2.189-.145-.71-.41-1.183-.41-1.183-1.559,1.573-4.733,2.653-6.452,3.159-.718,.219-1.179,.322-1.179,.322Z" style="fill:#263238;"></path><path d="M222.439,125.086l.635,1.162c3.269-.848,5.457-1.883,6.227-3.138-.145-.71-.41-1.183-.41-1.183-1.559,1.573-4.733,2.653-6.452,3.159Z" style="fill:#fff;"></path><path d="M224.081,129.212c3.473-.892,4.79-2.453,5.196-3.913-1.172,.349-2.546,.901-3.66,1.754-.855,.649-1.297,1.426-1.536,2.159Z" style="fill:#fb504e;"></path><path d="M216.502,96.626c2.599-5.403,13.187-10.423,25.361-5.206,10.998,4.697,9.452,35.603,4.009,29.778-1.48-1.584-2.728-3.155-3.779-4.667-6.317-9.086-15.14-16.138-25.551-19.89l-.04-.014Z" style="fill:#407BFF;"></path><path d="M257.32,146.834s-5.135-5.849-5.135-7.755c0-15.703,1.906-29.159,.394-37.406-1.821-9.933-19.613-19.092-35.865-8.658-.755,.485-8.628,9.832-7.223,24.48,.383,3.994,.534,7.925,.551,11.53,.047,9.815-14.057,19.028-4.884,17.771,0,0,.083,34.796,15.307,36.992,2.685,.387,9.315,.671,11.979,.157,10.044-1.938,21.807-18.991,24.877-37.111Zm-30.108-8.779c-17.991,.601-14.059-26.368-14.059-26.368,.359-1.282,.44-15.013,13.791-16.641,6.305-.769,10.404,2.794,12.974,6.768,3.071,4.749,4.076,10.528,3.15,16.107-1.3,7.832-5.054,19.774-15.856,20.134Z" style="fill:#407BFF;"></path><g style="opacity:.2;"><path d="M243.766,152.941c-1.895,5.964-6.471,11.272-12.421,13.209-5.95,1.937-13.433-.502-15.942-6.235,6.978,3.949,16.355,1.775,22.092-3.827,5.736-5.602,8.192-13.918,8.206-21.936,0,0,2.607,4.498-1.934,18.79Z"></path></g><path d="M212.789,136.573c.416,.59,3.332,12.653,17.407,7.693,0,0-12.073,13.572-16.99-7.103" style="opacity:.2;"></path><path d="M243.068,117.921c-.119,.435,0-12.349,0-12.349,.697,1.212,1.191,8.008,0,12.349Z" style="opacity:.2;"></path><path d="M248.739,142.433c-.119,.435,0-12.349,0-12.349,.697,1.212,1.191,8.008,0,12.349Z" style="opacity:.2;"></path></g><g><path d="M319.075,168.828c5.855,5.855,9.619,11.584,8.407,12.796-1.212,1.212-6.941-2.552-12.796-8.407s-9.619-11.584-8.407-12.796c1.212-1.212,6.941,2.552,12.796,8.407Z" style="fill:#407BFF;"></path><path d="M315.253,141.784s.337-1.422-.606-1.224c-.943,.199-1.34,.348-1.539,2.135-.198,1.787-1.142,5.212-2.085,6.453-.943,1.241-2.134,1.589-2.283,4.368-.149,2.78-.248,7.446-.248,7.446l.347,3.177s6.751,4.765,6.751,4.617,7.942-7.992,8.141-9.581c.199-1.588,.596-4.021-.645-5.063,0,0,.397-1.489-.149-3.723s-.745-2.035-.745-2.035c0,0,2.676-1.638,1.76-3.326-.916-1.688-2.81-1.978-2.81-1.978l-5.889-1.266Z" style="fill:#ce9163;"></path><g><path d="M323.318,99.824l-10.916,56.788,6.01,1.227,10.548-57.156s-1.717-1.717-5.642-.858Z" style="fill:#407BFF;"></path><path d="M323.318,99.824l-10.916,56.788,6.01,1.227,10.548-57.156s-1.717-1.717-5.642-.858Z" style="fill:#fff; opacity:.7;"></path><path d="M317.855,128.246s1.995,3.752,5.645,2.024l.855-4.633s-4.803,.367-5.557-2.297l-.943,4.907Z" style="fill:#407BFF;"></path></g><path d="M321.964,143.394c-.017,.094-4.101-.11-3.649,2.087,.452,2.196,4.586,1.292,4.586,1.292" style="fill:#ce9163;"></path><path d="M322.192,148.353s-.356-.644-1.325-.45-6.9,3.343-7.3,4.037c-.4,.694-.775,1.873,0,2.229l.678,.194s-2.422,1.001-2.39,2.003c.032,1.001,1.163,1.841,2.681,1.131,0,0-1.324,.711-.904,1.809,.42,1.098,.969,1.195,2.067,.775,1.098-.42,3.391-.614,3.391-.614l1.421,1.356" style="fill:#ce9163;"></path><path d="M314.336,154.52c-.093,0-.183-.052-.226-.142-.06-.125-.007-.274,.118-.333l3.483-1.665c.472-.226,1.007-.481,1.597-.493,.576,.005,1.288,.278,1.5,.941,.042,.132-.03,.272-.162,.314-.129,.041-.272-.031-.314-.162-.127-.4-.604-.581-1.014-.594-.482,.009-.965,.24-1.392,.444l-3.483,1.665c-.034,.017-.071,.024-.107,.024Z" style="fill:#b26836;"></path><path d="M320.256,161.072c-.07,0-.14-.029-.189-.087l-1.078-1.254-1.932,.258c-.269,.087-3.005,.897-3.569-.39-.453-1.033,.187-1.848,.588-2.135,.027-.02,.059-.033,.092-.041,.605-.134,1.203-.381,1.78-.62,.78-.323,1.587-.657,2.457-.738,.928-.085,1.872,.129,2.669,.605,.119,.071,.157,.225,.087,.343-.071,.119-.227,.156-.343,.087-.707-.422-1.552-.61-2.366-.537-.795,.073-1.532,.378-2.312,.702-.58,.24-1.181,.489-1.809,.634-.158,.13-.742,.686-.386,1.499,.327,.748,2.329,.315,3.005,.105l2.107-.285c.08-.015,.167,.021,.223,.084l1.166,1.356c.09,.105,.078,.263-.026,.353-.047,.041-.105,.061-.163,.061Z" style="fill:#b26836;"></path><path d="M263.025,148.347s4.541-1.454,11.729,10.115c7.188,11.569,17.412,19.869,17.412,19.869l14.63-18.705,20.954,21.73s-17.437,27.653-30.55,27.009c-13.114-.644-29.526-20.392-29.526-20.392l-4.649-39.626Z" style="fill:#263238;"></path><path d="M269.991,190.582c-.672-1.787-2.33-20.961-2.33-19.559s7.297,24.575,7.297,24.575l-4.968-5.016Z" style="opacity:.3;"></path></g><g><path d="M161.93,113.402l14.383,33.395s16.992-.005,27.873,0l-1.426,33.884s-33.3,3.677-45.44-6.397c-12.14-10.073-21.092-35.435-21.092-35.435l25.702-25.447Z" style="fill:#263238;"></path><polygon points="199.057 180.993 200.631 158.036 191.901 181.336 199.057 180.993" style="opacity:.3;"></polygon><path d="M176.313,146.797s.651,8.024-.696,15.898c0,0,3.73-6.724,2.59-15.899h-1.894Z" style="opacity:.3;"></path></g><path d="M209.375,110.314c-.175,.454-.081-13.997-.081-13.997,0,0-1.49-9.128,19.342-10.468,0,0,23.876-.079,24.63,12.875v12.489s-35.144-23.606-43.891-.898Z" style="fill:#263238;"></path><path d="M209.375,110.314c-.175,.454-.081-13.997-.081-13.997,0,0-1.49-9.128,19.342-10.468,0,0,23.876-.079,24.63,12.875v12.489s-35.144-23.606-43.891-.898Z" style="fill:#fff; opacity:.2;"></path></g></g></svg>
